<svg width="40" height="40" fill="none" xmlns="http://www.w3.org/2000/svg"><path fill-rule="evenodd" clip-rule="evenodd" d="M22.605 40H3.333A3.335 3.335 0 010 36.667V3.333A3.335 3.335 0 013.333 0h23.334A3.335 3.335 0 0130 3.333V10h-3.333V5H3.333v28.333h18.334V37.5c0 .873.303 1.958.938 2.5zM37.5 11.667a2.5 2.5 0 012.5 2.5V37.5c0 1.377-1.118 2.5-2.5 2.5H25.833a2.503 2.503 0 01-2.5-2.5V14.167c0-1.379 1.122-2.5 2.5-2.5H37.5zM15 35a1.667 1.667 0 11-.001 3.335A1.667 1.667 0 0115 35zm16.667 3.333a1.666 1.666 0 11-.001-3.332 1.666 1.666 0 010 3.332zm6.666-5V16.627H25v16.706h13.333zM32.5 15a.835.835 0 00.833-.833.835.835 0 00-.833-.834h-1.667a.834.834 0 000 1.667H32.5z" fill="#4D13D1"/></svg>