<svg width="40" height="40" fill="none" xmlns="http://www.w3.org/2000/svg"><path d="M21.667 20l-1.147-6.667h-1.015L18.333 20a3.318 3.318 0 00-1.666 2.872 3.335 3.335 0 006.666 0A3.317 3.317 0 0021.667 20zM20 6.667c-9.203 0-16.667 7.461-16.667 16.666S10.797 40 20 40c9.203 0 16.667-7.462 16.667-16.667 0-9.205-7.464-16.666-16.667-16.666zm0 30c-7.352 0-13.333-5.982-13.333-13.334C6.667 15.982 12.648 10 20 10s13.333 5.982 13.333 13.333c0 7.352-5.981 13.334-13.333 13.334zM16.667 3.635V0h6.666v3.635c-2.396-.405-4.32-.397-6.666 0zm15.298 3.71L34.31 5l2.357 2.357-2.202 2.201a20.226 20.226 0 00-2.5-2.213zM10.833 23.333a.834.834 0 11-1.667 0 .834.834 0 011.667 0zm20 0a.834.834 0 11-1.667 0 .834.834 0 011.667 0zm-10 10a.834.834 0 11-1.667 0 .834.834 0 011.667 0zM14.167 30a.834.834 0 11-1.668 0 .834.834 0 011.668 0zM27.5 30a.834.834 0 11-1.667 0 .834.834 0 011.667 0zM14.167 15a.834.834 0 11-1.668 0 .834.834 0 011.668 0zM27.5 15a.834.834 0 11-1.667 0 .834.834 0 011.667 0z" fill="#4D13D1"/></svg>